<svg width="375" height="355" viewBox="0 0 375 355" fill="none" xmlns="http://www.w3.org/2000/svg">
<path d="M326.138 232.869C332.075 222.727 336.32 211.674 338.482 200.179C346.928 155.335 334.238 121.997 297.187 81.7566C267.518 49.532 252.298 41.9077 226.457 42.9556C213.824 43.468 198.727 52.7705 194.02 55.9483C177.98 66.7746 134.91 68.791 96.6107 75.7972C82.3079 78.4134 71.6332 85.5133 62.7603 91.1257C46.6144 101.338 41.7797 129.689 43.4116 148.673C46.093 179.851 66.7323 241.315 66.7388 241.096C66.7454 240.876 114.732 348.949 185.495 300.046C250.929 237.909 267.891 279.438 296.283 262.839C308.558 255.663 318.859 245.31 326.137 232.873L326.138 232.869Z" fill="#F8ECD4"/>
<path d="M54.9801 75.3149C62.6396 69.6513 71.6501 58.2823 124.918 58.4815C138.339 57.8285 172.3 53.2108 190.616 39.7613" stroke="#9C7A30" stroke-width="1.5" stroke-linecap="round"/>
<path d="M327.574 175.668C327.505 199.726 319.001 236.288 282.376 256.246" stroke="#9C7A30" stroke-width="1.5" stroke-linecap="round"/>
<path d="M47.2651 81.6796C44.6029 83.4349 40.9699 89.2385 40.0671 92.2823" stroke="#9C7A30" stroke-width="1.5" stroke-linecap="round" stroke-linejoin="round"/>
<g clip-path="url(#clip0_1_5)">
<path d="M33.0233 242.444C37.4132 243.602 41.4332 242.692 42.0023 240.412C42.5714 238.131 39.474 235.344 35.0842 234.186C30.6943 233.028 26.6742 233.938 26.1051 236.218C25.536 238.499 28.6334 241.286 33.0233 242.444Z" fill="#EEC3B3" fill-opacity="0.61"/>
<path d="M45.034 228.008C44.2089 230.211 40.1452 230.625 35.8953 228.898C31.6454 227.172 27.6671 224.825 28.4995 222.635C29.332 220.445 34.8971 218.216 39.147 219.942C43.3969 221.669 45.8793 225.767 45.034 228.008Z" fill="#EEC3B3" fill-opacity="0.61"/>
<path d="M59.5671 233.68C59.2572 235.601 56.0096 236.647 52.3006 236.021C48.5916 235.395 45.5982 234.363 45.908 232.442C46.2179 230.522 49.9831 227.4 53.6895 228.037C57.3959 228.674 59.8471 231.751 59.5671 233.68Z" fill="#EEC3B3" fill-opacity="0.61"/>
<path d="M72.459 229.038C71.4992 231.569 66.0619 230.739 61.1989 228.797C56.3359 226.854 52.4415 221.921 53.3987 219.401C54.3559 216.881 60.0435 216.665 64.9039 218.618C69.7643 220.571 73.4063 226.516 72.459 229.038Z" fill="#EEC3B3" fill-opacity="0.61"/>
<path d="M55.4487 214.793C53.9289 217.021 48.4874 216.972 43.6182 213.399C38.749 209.827 36.2901 204.106 37.81 201.877C39.3298 199.649 44.5111 200.741 49.3829 204.303C54.2546 207.866 56.9686 212.564 55.4487 214.793Z" fill="#EEC3B3" fill-opacity="0.61"/>
<path d="M73.4914 210.728C72.0607 213.024 66.5875 213.187 61.5899 209.789C56.5922 206.392 52.4266 202.63 53.8548 200.344C55.283 198.059 61.5544 199.196 66.5152 202.529C71.4761 205.861 74.9197 208.442 73.4914 210.728Z" fill="#EEC3B3" fill-opacity="0.61"/>
<path d="M87.0199 239.689C86.71 241.61 83.4625 242.656 79.7634 242.033C76.0644 241.409 72.3149 239.078 72.6247 237.158C72.9346 235.237 77.4458 233.412 81.1423 234.046C84.8388 234.68 87.3397 237.771 87.0199 239.689Z" fill="#EEC3B3" fill-opacity="0.61"/>
<path d="M87.5282 226.28C86.1739 228.354 82.8201 227.238 79.7216 225.057C76.6232 222.875 74.2044 219.201 75.5638 217.106C76.9232 215.011 81.7907 214.347 84.8892 216.529C87.9876 218.71 88.9001 224.177 87.5282 226.28Z" fill="#EEC3B3" fill-opacity="0.61"/>
<path d="M76.2572 196.105C77.7992 193.75 76.1859 189.83 72.6539 187.351C69.1219 184.872 65.009 184.772 63.467 187.128C61.925 189.484 63.5379 193.403 67.0699 195.882C70.6019 198.361 74.7152 198.461 76.2572 196.105Z" fill="#EEC3B3" fill-opacity="0.61"/>
<path d="M28.3323 220.038C28.0253 221.905 24.4755 222.762 21.5496 222.266C18.6238 221.769 15.8152 218.552 16.117 216.707C16.4188 214.861 19.7161 215.015 22.642 215.512C25.5679 216.009 28.6366 218.182 28.3323 220.038Z" fill="#EEC3B3" fill-opacity="0.61"/>
<path d="M35.0824 209.497C33.6111 211.573 28.1945 212.994 24.8352 210.458C21.4758 207.921 18.7198 200.549 20.1811 198.47C21.6424 196.391 27.2822 198.318 30.6489 200.868C34.0156 203.417 36.5437 207.418 35.0824 209.497Z" fill="#EEC3B3" fill-opacity="0.61"/>
<path d="M37.4917 195.599C36.0205 197.676 31.1191 197.032 27.7597 194.496C24.4004 191.959 22.5911 189.237 24.0624 187.161C25.1992 185.818 26.7689 184.952 28.4742 184.727C30.1796 184.502 31.9021 184.932 33.3159 185.938C36.6753 188.474 38.9556 193.51 37.4917 195.599Z" fill="#EEC3B3" fill-opacity="0.61"/>
<path d="M50.7109 194.696C48.8146 196.396 43.7311 194.318 40.5672 190.447C37.4033 186.576 35.3768 181.838 37.2654 180.169C39.154 178.5 44.5153 179.507 47.6693 183.376C50.8233 187.244 52.6094 193.029 50.7109 194.696Z" fill="#EEC3B3" fill-opacity="0.61"/>
<path d="M55.6558 185.702C54.0292 186.704 51.7716 184.293 50.1937 181.577C49.5245 180.57 49.2679 179.327 49.48 178.119C49.6921 176.911 50.3557 175.837 51.3258 175.132C52.9424 174.128 54.474 175.247 56.0519 177.963C57.6298 180.678 57.2197 184.74 55.6558 185.702Z" fill="#EEC3B3" fill-opacity="0.61"/>
<path d="M21.522 235.83C19.8955 236.831 17.6378 234.421 16.0599 231.705C15.3907 230.697 15.1342 229.454 15.3463 228.247C15.5584 227.039 16.2219 225.965 17.192 225.259C18.8086 224.256 20.3402 225.375 21.9181 228.09C23.496 230.806 23.086 234.867 21.522 235.83Z" fill="#EEC3B3" fill-opacity="0.61"/>
<path d="M37.7163 174.502C36.5777 175.202 34.776 174.232 33.6816 172.337C32.5872 170.442 30.4065 168.062 33.0624 166.332C34.1888 165.595 36.7486 167.898 37.833 169.79C38.9175 171.683 38.8549 173.801 37.7163 174.502Z" fill="#EEC3B3" fill-opacity="0.61"/>
</g>
<path d="M12.9484 210.625C12.3464 212.307 9.62018 212.717 6.81833 211.518C4.01647 210.318 1.41041 208.644 2.01701 206.973C2.62362 205.301 6.39519 203.486 9.19705 204.685C11.9989 205.884 13.5648 208.915 12.9484 210.625Z" fill="#EEC3B3" fill-opacity="0.61"/>
<path d="M16.5673 185.227C15.4519 186.802 11.3454 187.879 8.7986 185.956C6.25177 184.033 4.16233 178.444 5.27021 176.867C6.37809 175.291 10.6538 176.753 13.2062 178.685C15.7586 180.618 17.6752 183.651 16.5673 185.227Z" fill="#EEC3B3" fill-opacity="0.61"/>
<path d="M29.4306 180.04C28.3152 181.614 24.5993 181.126 22.0525 179.203C19.5056 177.28 18.134 175.217 19.2494 173.643C20.1112 172.625 21.3013 171.968 22.5941 171.797C23.887 171.627 25.193 171.953 26.2648 172.716C28.8116 174.638 30.5404 178.456 29.4306 180.04Z" fill="#EEC3B3" fill-opacity="0.61"/>
<path d="M15.1224 200.572C13.6848 201.861 9.83087 200.286 7.43219 197.351C5.03352 194.416 3.49723 190.824 4.92901 189.559C6.36078 188.293 10.4254 189.057 12.8165 191.99C15.2077 194.922 16.5617 199.308 15.1224 200.572Z" fill="#EEC3B3" fill-opacity="0.61"/>
<g clip-path="url(#clip1_1_5)">
<path d="M0.134194 355.192C-0.120031 355.192 1.16068 233.805 1.16068 233.805C1.16019 233.726 1.17679 233.648 1.2089 233.577C1.24102 233.505 1.28828 233.442 1.34688 233.391C4.3878 230.758 73.7029 196.22 102.851 183.622C133.162 170.509 148.318 168.996 176.674 168.996C205.03 168.996 239.252 160.926 250.008 154.874C260.764 148.822 275.91 141.276 272.497 151.848C269.085 162.419 247.075 164.961 247.075 164.961C247.075 164.961 263.208 157.396 276.897 150.335C287.232 144.999 290.43 151.454 288.631 155.126C288.592 155.206 288.573 155.296 288.576 155.385C288.578 155.475 288.602 155.563 288.646 155.641C288.69 155.719 288.751 155.785 288.826 155.832C288.9 155.88 288.984 155.907 289.071 155.913C291.193 156.104 295.915 155.287 294.488 162.328C294.478 162.398 294.478 162.47 294.488 162.54C294.683 163.549 295.906 173.202 288.621 182.613C280.799 192.7 246.576 235.066 177.153 240.109C115.328 244.598 114.36 242.217 112.062 244.517C112.023 244.517 33.7701 356.796 0.134194 355.192Z" fill="#EEAA6C"/>
<path d="M220.626 204.299C270.337 189.068 294.449 163.447 294.449 163.447C294.449 163.447 255.181 190.117 241.325 193.708C238.438 195.735 235.444 197.597 232.359 199.286C228.751 201.112 220.626 204.299 220.626 204.299Z" fill="#DA8A52"/>
<path d="M239.321 177.781C238.118 178.033 238.343 180.302 238.343 180.302C244.914 179.99 289.071 155.912 289.071 155.912C289.071 155.912 288.249 156.285 288.914 154.318C288.895 154.369 247.759 175.965 239.321 177.781Z" fill="#DA8A52"/>
<path d="M139.802 191.32C139.802 191.32 131.354 190.787 129.493 191.547C127.631 192.306 118.092 182.888 122.201 179.486C122.201 179.486 130.731 188.864 139.802 191.32Z" fill="#DA8A52"/>
<path d="M272.058 152.815C272.058 152.815 251.26 163.82 247.437 166.16C247.437 166.16 247.515 166.473 247.515 165.464L272.937 149.325C272.937 149.325 272.938 152.351 272.058 152.815Z" fill="#DA8A52"/>
<path d="M288.426 155.781C280.44 160.993 265.936 168.894 249.314 175.955" stroke="#9A5D42" stroke-width="1.5" stroke-linecap="round"/>
<path d="M272.292 152.755C270.337 154.1 252.736 163.347 248.336 165.364" stroke="#9A5D42" stroke-width="1.5" stroke-linecap="round"/>
<path d="M294.292 163.347C277.67 177.973 263.981 187.555 250.292 192.599" stroke="#9A5D42" stroke-width="1.5" stroke-linecap="round"/>
<path d="M274.737 197.642C265.936 206.553 241.198 226.189 212.647 233.451C185.782 240.285 139.497 242.892 116.067 243.456C113.471 243.518 111.072 244.802 109.568 246.919C101.704 257.988 84.279 281.435 81.1343 285.4" stroke="#9A5D42" stroke-width="1.5" stroke-linecap="round"/>
<path d="M153.713 115.406C153.713 115.406 155.336 98.8168 181.015 96.3432C206.695 93.8696 211.744 99.7067 206.093 106.393C200.443 113.079 193.17 134.884 207.526 142.836C221.881 150.787 238.096 152.175 238.428 164.609C238.776 177.311 237.921 185.965 221.564 192.031C205.207 198.096 137.419 201.737 126.498 179.785C115.578 157.833 132.038 153.016 144.043 148.673C153.42 145.269 156.079 138.24 155.288 130.141C154.497 122.043 153.08 123.48 153.713 115.406Z" fill="#FCBFA8"/>
<path d="M208.024 103.16C205.523 100.222 184.45 116.133 171.622 120.304C158.47 124.582 154.022 121.186 153.69 121.447C153.69 121.447 153.421 129.284 170.039 124.386C182.638 120.672 194.571 111.324 202.485 106.426C204.272 105.234 206.121 104.143 208.024 103.16Z" fill="#FFEFEF"/>
<path d="M125.897 159.033C125.897 159.033 135.56 157.539 161.35 166.111C187.14 174.683 244.949 180.324 236.838 159.155C236.838 159.155 251.351 180.381 222.728 192.504C197.404 203.199 149.345 197.982 131.722 186.839C109.105 172.552 125.897 159.033 125.897 159.033Z" fill="#DC9377"/>
<path d="M186.776 138.599C185.28 140.444 184.695 130.974 184.497 126.01C184.507 125.917 184.546 125.83 184.608 125.762C184.669 125.694 184.751 125.648 184.839 125.632C184.928 125.615 185.02 125.629 185.101 125.67C185.182 125.712 185.248 125.78 185.288 125.863C186.531 129.749 189.301 133.692 186.776 138.599Z" fill="#FFEFEF"/>
<path d="M125.723 158.673C125.723 158.673 135.362 156.591 156.974 163.939C178.586 171.286 244.427 180.715 236.901 159.138C236.901 159.138 250.742 177.45 213.548 179.899C176.354 182.348 140.743 160.306 122.462 162.877L125.723 158.673Z" fill="#FFEFEF"/>
<path d="M240.038 166.056C242.808 179.118 235.595 184.716 232.825 186.757" stroke="#AA5F43" stroke-width="1.5" stroke-linecap="round"/>
<path d="M141.424 149.612C145.908 148.796 154.956 144.551 155.272 134.101" stroke="#EEA78C" stroke-linecap="round"/>
<path d="M122.431 163.082C118.342 168.933 116.812 182.92 143.402 192.063" stroke="#AA5F43" stroke-width="1.5" stroke-linecap="round"/>
<path d="M156.052 109.609C153.593 114.749 150.587 125.288 158.042 125.937C165.497 126.586 174.058 123.751 177.035 122.263" stroke="#EEA78C" stroke-linecap="round"/>
<path d="M184.552 132.06C184.684 134.782 185.265 139.979 186.531 139C187.797 138.02 188.114 135.326 188.114 134.101" stroke="#EEA78C" stroke-linecap="round"/>
<path d="M94.4909 212.964C94.4909 212.964 105.432 188.1 148.494 191.691C198.958 201.677 247.515 172.425 247.515 189.038C247.515 189.038 193.042 236.548 94.4909 212.964Z" fill="#EEAA6C"/>
<path d="M173.535 224.877C206.291 221.347 235.625 199.156 248.023 188.281C248.023 188.281 248.493 186.647 245.559 186.647C240.025 191.59 213.204 215.214 180.869 219.834C178.043 220.237 175.139 222.87 173.047 224.877H173.535Z" fill="#DA8A52"/>
<path d="M248.023 188.261C238.839 195.927 209.909 220.742 173.535 224.373" stroke="#9A5D42" stroke-width="1.5" stroke-miterlimit="10" stroke-linecap="round"/>
<path d="M102.646 203.19C116.726 190.682 134.261 190.245 141.268 191.59C148.602 192.599 165.713 194.515 175.491 194.112" stroke="#9A5D42" stroke-width="1.5" stroke-linecap="round"/>
<path d="M252.956 187.555C253.456 184.721 250.656 180.055 235.456 184.055C220.256 188.055 212.122 189.054 209.956 189.054" stroke="#9A5D42" stroke-width="1.5" stroke-linecap="round"/>
</g>
<defs>
<clipPath id="clip0_1_5">
<rect width="74.9553" height="73.9669" fill="white" transform="matrix(0.967125 0.255107 -0.242089 0.970052 28.4651 164.767)"/>
</clipPath>
<clipPath id="clip1_1_5">
<rect width="294.315" height="283.445" fill="white" transform="translate(0.955627 71.5547)"/>
</clipPath>
</defs>
</svg>
