<svg version="1.0" xmlns="http://www.w3.org/2000/svg"
 width="12.000000pt" height="12.000000pt" viewBox="0 0 512.000000 512.000000"
 preserveAspectRatio="xMidYMid meet">

<g transform="translate(0.000000,512.000000) scale(0.100000,-0.100000)"
fill="#e7eaf3" stroke="none">
<path d="M2495 4786 c-16 -8 -366 -351 -777 -763 -661 -663 -747 -752 -753
-785 -15 -80 23 -156 92 -184 48 -21 2958 -21 3006 0 69 28 107 104 92 183 -6
34 -92 124 -753 787 -434 434 -760 754 -779 762 -40 17 -89 17 -128 0z"/>
<path d="M1055 2066 c-67 -29 -105 -105 -90 -183 6 -34 92 -123 763 -795 822
-822 775 -780 870 -764 33 6 122 92 794 764 671 671 757 761 763 795 15 79
-23 155 -92 183 -48 20 -2963 20 -3008 0z"/>
</g>
</svg>
