<svg width="130" height="186" viewBox="0 0 130 186" fill="none" xmlns="http://www.w3.org/2000/svg">
<g clip-path="url(#clip0_115_14)">
<mask id="mask0_115_14" style="mask-type:luminance" maskUnits="userSpaceOnUse" x="0" y="0" width="130" height="186">
<path d="M130 0H0V186H130V0Z" fill="white"/>
</mask>
<g mask="url(#mask0_115_14)">
<mask id="mask1_115_14" style="mask-type:luminance" maskUnits="userSpaceOnUse" x="0" y="0" width="130" height="186">
<path d="M0 0H130V186H0V0Z" fill="white"/>
</mask>
<g mask="url(#mask1_115_14)">

<path d="M28.3534 87.8683C29.9811 91.8849 32.26 100.505 28.3534 102.849" stroke="#C4C4C4" stroke-opacity="0.8" stroke-width="5" stroke-linecap="round"/>
<path d="M119 73.5C84 101 55.2505 99.0767 33.5 88.5C8.22013 76.2072 10.8476 41.102 17.3727 18.9415C19.5312 12.8128 24.832 -0.125562 28.7669 -2.84943" stroke="#616161" stroke-opacity="0.8" stroke-width="5" stroke-linecap="round"/>

<path d="M68.7333 58.3662C74.1089 58.3662 78.4666 55.3174 78.4666 51.5566C78.4666 47.7957 74.1089 44.7469 68.7333 44.7469C63.3578 44.7469 59 47.7957 59 51.5566C59 55.3174 63.3578 58.3662 68.7333 58.3662Z" fill="#C4C4C4" fill-opacity="0.8"/>
</g>
</g>
</g>
<defs>
<clipPath id="clip0_115_14">
<rect width="130" height="186" fill="white" transform="matrix(-1 0 0 1 130 0)"/>
</clipPath>
</defs>
</svg>
