<svg width="118" height="91" viewBox="0 0 118 91" fill="none" xmlns="http://www.w3.org/2000/svg">
<g clip-path="url(#clip0_1_7299)">
<path d="M68.6274 49.1287C66.5817 49.1596 64.6052 48.3914 63.1206 46.9884C59.3556 43.5089 58.1425 40.0985 57.0003 33.2713C55.8785 36.4074 54.5553 39.1373 53.0496 41.3952C49.8037 46.2608 45.7114 48.9108 41.5531 48.8559H41.4838C35.9629 48.4874 32.5786 44.583 31.4238 37.2525C30.7583 33.0283 32.264 28.5202 35.085 26.2889C36.7402 24.9796 38.6251 24.6519 40.3919 25.3654C41.1138 25.6623 41.7605 26.1154 42.2851 26.6919C42.8097 27.2685 43.1992 27.954 43.4254 28.699C44.5472 32.2615 43.5213 34.6904 42.4357 37.2619C42.121 37.9958 40.0757 41.8468 37.1618 44.2867C38.3356 45.4486 39.8177 46.0758 41.6333 46.2028H41.6962C44.898 46.2028 48.147 43.9762 50.8422 39.9229C53.0055 36.6771 54.7755 32.3446 56.083 27.1482C56.0531 26.9397 56.0216 26.7296 55.9917 26.521C55.7133 24.5845 55.3986 22.3908 55.0304 19.9683C53.8976 12.5155 54.4373 6.84079 56.4055 5.51111C56.7023 5.30175 57.0539 5.18325 57.4172 5.17016C57.7805 5.15707 58.1398 5.24995 58.4509 5.43741C61.0863 6.97407 60.7024 15.0211 60.416 18.4112C60.416 18.43 60.416 18.4504 60.416 18.4708C60.0309 21.4372 59.4842 24.3806 58.7782 27.2878C60.2776 37.6837 60.9226 41.3513 64.9284 45.0534C67.5134 47.4431 71.4374 46.8598 76.9252 43.269C77.0702 43.1585 77.2364 43.0789 77.4136 43.0352C77.5908 42.9915 77.7751 42.9846 77.955 43.015C78.135 43.0453 78.3067 43.1123 78.4596 43.2117C78.6124 43.3111 78.7431 43.4408 78.8435 43.5927C78.9439 43.7447 79.0118 43.9156 79.043 44.0948C79.0742 44.274 79.068 44.4577 79.0249 44.6345C78.9818 44.8112 78.9026 44.9772 78.7923 45.1221C78.682 45.267 78.5429 45.3878 78.3837 45.4768C74.6643 47.9104 71.4027 49.1287 68.6274 49.1287ZM38.5322 27.6468C37.9406 27.6468 37.3396 27.8852 36.737 28.3619C34.9591 29.7731 33.4644 33.1318 34.0482 36.8401C34.3849 38.9789 34.9009 40.7351 35.6105 42.1244C37.851 40.1753 39.632 37.0612 39.9797 36.2396C40.9867 33.8546 41.7104 32.1329 40.8828 29.4971C40.7723 29.1263 40.5818 28.784 40.3247 28.4942C40.0676 28.2044 39.7501 27.9741 39.3944 27.8193C39.1209 27.7068 38.8281 27.6483 38.5322 27.6468ZM57.4817 8.86667C57.0994 10.4645 56.791 13.7197 57.6044 19.2642C57.6563 18.9004 57.7083 18.5319 57.7618 18.1666C58.174 13.196 57.8404 10.3218 57.4817 8.86667Z" fill="#082D4B"/>
<path d="M79.2616 91.0042C76.6797 91.0042 74.4251 90.1434 72.7274 88.5064C70.2667 86.134 68.9828 82.203 68.9105 76.8231C68.7956 68.1645 71.5269 60.0782 77.0305 52.7916C79.0324 50.1399 81.3265 47.7205 83.8699 45.5787C83.8699 45.5505 83.8526 45.5223 83.8447 45.4956C83.8369 45.469 83.8274 45.4329 83.8211 45.4016C80.945 32.456 80.3865 21.7245 82.1581 13.4939C83.5741 6.92079 86.5635 2.23712 90.36 0.644014C93.4375 -0.648034 97.0231 0.0387583 99.4965 2.39235C102.87 5.60523 103.562 11.0964 101.348 17.08C100.373 19.7158 97.6808 22.6778 97.5723 22.8017C97.3316 23.0477 97.0045 23.191 96.6599 23.2012C96.3153 23.2115 95.9802 23.0879 95.7253 22.8566C95.4703 22.6253 95.3155 22.3044 95.2935 21.9615C95.2714 21.6187 95.3839 21.2807 95.6071 21.0189C95.6323 20.9922 98.0647 18.3109 98.8593 16.158C100.695 11.1936 100.249 6.76086 97.6651 4.30063C95.9344 2.65108 93.5287 2.18224 91.3968 3.07758C88.4547 4.31161 85.9751 8.40884 84.762 14.0443C83.1414 21.5598 83.6355 31.8131 86.178 43.7489C89.7201 41.1456 93.6118 39.0516 97.739 37.5285C101.547 36.1173 105.448 34.7751 106.55 34.3925C106.801 34.3061 107.071 34.2867 107.332 34.3362C107.594 34.3857 107.838 34.5025 108.04 34.6749C108.242 34.8474 108.395 35.0694 108.485 35.3191C108.574 35.5688 108.596 35.8375 108.55 36.0985C108.078 38.6998 107.763 42.3047 108.419 43.8978C108.837 44.9249 109.907 46.0005 111.144 46.0648C112.59 46.1479 114.133 44.7869 115.502 42.2483C115.669 41.9389 115.953 41.7082 116.29 41.6071C116.628 41.5059 116.992 41.5425 117.302 41.7089C117.613 41.8752 117.844 42.1577 117.945 42.4941C118.047 42.8305 118.01 43.1933 117.843 43.5027C115.435 47.9809 112.793 48.8042 111.002 48.7132C108.551 48.5831 106.668 46.6434 105.957 44.8966C105.17 42.9507 105.356 39.7818 105.642 37.5113C103.889 38.1212 101.257 39.0495 98.6673 40.0091C94.4407 41.5668 90.4787 43.7609 86.9191 46.5148C89.9934 57.0206 92.9954 69.8109 91.1215 79.3837C89.117 89.6197 83.5238 90.9102 79.4913 90.987L79.2616 91.0042ZM84.6912 48.3808C82.6528 50.1965 80.7979 52.2069 79.153 54.3832C74.0128 61.1915 71.4609 68.729 71.5679 76.787C71.6308 81.4362 72.6425 84.74 74.5761 86.6028C75.8206 87.8039 77.4585 88.3872 79.4409 88.3543C83.025 88.2837 86.9065 87.0999 88.5145 78.8897C90.2184 70.1872 87.5641 58.3722 84.6912 48.3808Z" fill="#082D4B"/>
<path d="M16.5005 49.3691C8.0248 49.3691 1.57404 43.9563 0.752753 39.9986C0.690601 39.658 0.764678 39.3067 0.959135 39.0198C1.15359 38.733 1.45298 38.5333 1.79324 38.4637C2.13351 38.394 2.48762 38.4598 2.7798 38.6471C3.07199 38.8343 3.27904 39.1281 3.35666 39.4655C3.84125 41.8175 9.19852 47.119 17.38 46.6972C19.0261 46.6356 20.6336 46.183 22.0686 45.3769C24.1517 44.1601 25.2373 42.5545 25.2955 40.6007C25.3647 38.1781 23.7489 35.4467 21.2724 33.8018C20.2466 33.1213 18.7252 32.3404 16.963 31.4372C13.67 29.7469 9.15761 27.4341 4.19053 23.8951C3.0249 23.0642 2.05175 21.9936 1.33681 20.7558C0.621879 19.518 0.181805 18.1417 0.0463168 16.7198C-0.0902138 15.3216 0.0759465 13.9104 0.533573 12.5817C0.9912 11.253 1.72963 10.0376 2.69899 9.01769C5.67263 5.8989 9.91282 4.30109 14.6329 4.51277C19.0383 4.71348 23.2266 6.5512 25.3128 9.17449C27.5533 11.9969 27.5344 15.8511 25.2625 19.2177C25.17 19.3725 25.0468 19.5069 24.9005 19.6126C24.7541 19.7184 24.5876 19.7933 24.4112 19.8327C24.2348 19.8722 24.0522 19.8754 23.8746 19.8421C23.6969 19.8088 23.5279 19.7398 23.3779 19.6392C23.2279 19.5386 23.1001 19.4086 23.0022 19.2571C22.9044 19.1056 22.8385 18.9359 22.8087 18.7581C22.779 18.5804 22.7859 18.3985 22.829 18.2236C22.8722 18.0486 22.9507 17.8843 23.0598 17.7406C24.6599 15.3619 24.7244 12.7057 23.225 10.824C21.6217 8.78562 18.1194 7.32266 14.5102 7.15802C12.2272 7.0608 7.90994 7.39636 4.62478 10.8429C3.91764 11.5884 3.37914 12.4763 3.04557 13.4468C2.71201 14.4174 2.59114 15.4479 2.69113 16.4689C2.79069 17.5139 3.11414 18.5254 3.63962 19.4352C4.16511 20.3449 4.88039 21.1316 5.73714 21.7422C10.5422 25.1667 14.9586 27.4294 18.1792 29.0821C20.0877 30.0605 21.595 30.8335 22.742 31.5987C26.0019 33.7626 28.0442 37.3267 27.9466 40.6776C27.8632 43.522 26.2505 46.0088 23.4059 47.6615C21.6033 48.6821 19.582 49.2584 17.5106 49.3424C17.1754 49.3597 16.8356 49.3691 16.5005 49.3691Z" fill="#082D4B"/>
<path d="M108.545 25.298C108.685 25.0989 108.793 24.9264 108.919 24.768C109.432 24.1189 110.154 23.9166 111.021 24.1722C111.844 24.4137 112.33 24.9797 112.42 25.7841C112.562 27.0385 112.014 28.0185 111.213 28.9029C110.18 30.0444 108.915 30.8912 107.615 31.6908C107.493 31.7516 107.368 31.804 107.239 31.8476C107.217 31.7116 107.203 31.5745 107.196 31.4368C107.221 30.598 106.913 29.7833 106.339 29.1695C105.883 28.6804 105.463 28.1601 105.08 27.6124C104.888 27.3465 104.755 27.0422 104.691 26.7204C104.628 26.3986 104.635 26.0669 104.712 25.748C105.017 24.4936 106.47 23.7943 107.623 24.3651C107.897 24.4999 108.095 24.7774 108.331 24.9923C108.411 25.088 108.482 25.1903 108.545 25.298Z" fill="#082D4B"/>
</g>
<defs>
<clipPath id="clip0_1_7299">
<rect width="118" height="91" fill="white"/>
</clipPath>
</defs>
</svg>
